<svg id="Layer_1" data-name="Layer 1" xmlns="http://www.w3.org/2000/svg" viewBox="0 0 589.1 111.3"><title>gobi</title><g id="Symbols"><g id="Logo-_-Large" data-name="Logo-—-Large"><g id="Group-2"><path id="Fill-1" d="M482.9,2.6V13.5h41.2a6.7,6.7,0,0,1,6.7,6.7V93a5.59,5.59,0,0,1-5.6,5.6H483v10.9H589.5V98.6H547.3a5.59,5.59,0,0,1-5.6-5.6V19.2a5.59,5.59,0,0,1,5.6-5.6h42.2V2.7H482.9Z" transform="translate(-0.4 -0.4)"/><path id="Fill-4" d="M418.4,45a5.59,5.59,0,0,1-5.6,5.6H333.6v-37h79a5.8,5.8,0,0,1,5.8,5.8Zm0,47.8a5.59,5.59,0,0,1-5.6,5.6H333.6V61.5h79.2a5.59,5.59,0,0,1,5.6,5.6ZM425,56.1l4.3-4.3V9a6.47,6.47,0,0,0-6.4-6.5H322.7V109.6H423.1a6.27,6.27,0,0,0,6.3-6.3V60.5Z" transform="translate(-0.4 -0.4)"/><path id="Fill-6" d="M215.9,100.7a44.6,44.6,0,1,1,44.5-44.6,44.56,44.56,0,0,1-44.5,44.6M215.9.5a55.6,55.6,0,1,0,55.4,55.6A55.5,55.5,0,0,0,215.9.5" transform="translate(-0.4 -0.4)"/><path id="Fill-9" d="M99.9,61.5A44.48,44.48,0,1,1,55.5,11.4V.4A55.6,55.6,0,1,0,111.2,56a50.68,50.68,0,0,0-.3-5.5H55.5V61.4H99.9v.1Z" transform="translate(-0.4 -0.4)"/></g></g></g></svg>